<?xml version="1.0" encoding="utf-8" standalone="no"?>
<!DOCTYPE svg PUBLIC "-//W3C//DTD SVG 1.1//EN"
  "http://www.w3.org/Graphics/SVG/1.1/DTD/svg11.dtd">
<svg xmlns:xlink="http://www.w3.org/1999/xlink" width="1152pt" height="648pt" viewBox="0 0 1152 648" xmlns="http://www.w3.org/2000/svg" version="1.1">
 <metadata>
  <rdf:RDF xmlns:dc="http://purl.org/dc/elements/1.1/" xmlns:cc="http://creativecommons.org/ns#" xmlns:rdf="http://www.w3.org/1999/02/22-rdf-syntax-ns#">
   <cc:Work>
    <dc:type rdf:resource="http://purl.org/dc/dcmitype/StillImage"/>
    <dc:date>2026-09-18T13:57:45.753265</dc:date>
    <dc:format>image/svg+xml</dc:format>
    <dc:creator>
     <cc:Agent>
      <dc:title>Matplotlib v3.11.2, https://matplotlib.org/</dc:title>
     </cc:Agent>
    </dc:creator>
   </cc:Work>
  </rdf:RDF>
 </metadata>
 <defs>
  <style type="text/css">*{stroke-linejoin: round; stroke-linecap: butt}</style>
 </defs>
 <g id="figure_1">
  <g id="patch_1">
   <path d="M 0 648 
L 1152 648 
L 1152 0 
L 0 0 
z
" style="fill: #19161d"/>
  </g>
  <g id="axes_1">
   <g id="patch_2">
    <path d="M 63.36 498.24 
L 336.24 498.24 
Q 350.64 498.24 350.64 483.84 
L 350.64 138.96 
Q 350.64 124.56 336.24 124.56 
L 63.36 124.56 
Q 48.96 124.56 48.96 138.96 
L 48.96 483.84 
Q 48.96 498.24 63.36 498.24 
z
" clip-path="url(#p4f373cbc44)" style="fill: #26212c; stroke: #49384d; stroke-width: 1.2; stroke-linejoin: miter"/>
   </g>
   <g id="patch_3">
    <path d="M 99.36 290.16 
C 106.615957 290.16 113.575705 287.277178 118.706442 282.146442 
C 123.837178 277.015705 126.72 270.055957 126.72 262.8 
C 126.72 255.544043 123.837178 248.584295 118.706442 243.453558 
C 113.575705 238.322822 106.615957 235.44 99.36 235.44 
C 92.104043 235.44 85.144295 238.322822 80.013558 243.453558 
C 74.882822 248.584295 72 255.544043 72 262.8 
C 72 270.055957 74.882822 277.015705 80.013558 282.146442 
C 85.144295 287.277178 92.104043 290.16 99.36 290.16 
z
" clip-path="url(#p4f373cbc44)" style="fill: #19161d; stroke: #7cdecf; stroke-width: 2; stroke-linejoin: miter"/>
   </g>
   <g id="patch_4">
    <path d="M 200.16 290.16 
C 207.415957 290.16 214.375705 287.277178 219.506442 282.146442 
C 224.637178 277.015705 227.52 270.055957 227.52 262.8 
C 227.52 255.544043 224.637178 248.584295 219.506442 243.453558 
C 214.375705 238.322822 207.415957 235.44 200.16 235.44 
C 192.904043 235.44 185.944295 238.322822 180.813558 243.453558 
C 175.682822 248.584295 172.8 255.544043 172.8 262.8 
C 172.8 270.055957 175.682822 277.015705 180.813558 282.146442 
C 185.944295 287.277178 192.904043 290.16 200.16 290.16 
z
" clip-path="url(#p4f373cbc44)" style="fill: #19161d; stroke: #f078a5; stroke-width: 2; stroke-linejoin: miter"/>
   </g>
   <g id="patch_5">
    <path d="M 296.64 290.16 
C 303.895957 290.16 310.855705 287.277178 315.986442 282.146442 
C 321.117178 277.015705 324 270.055957 324 262.8 
C 324 255.544043 321.117178 248.584295 315.986442 243.453558 
C 310.855705 238.322822 303.895957 235.44 296.64 235.44 
C 289.384043 235.44 282.424295 238.322822 277.293558 243.453558 
C 272.162822 248.584295 269.28 255.544043 269.28 262.8 
C 269.28 270.055957 272.162822 277.015705 277.293558 282.146442 
C 282.424295 287.277178 289.384043 290.16 296.64 290.16 
z
" clip-path="url(#p4f373cbc44)" style="fill: #19161d; stroke: #f078a5; stroke-width: 2; stroke-linejoin: miter"/>
   </g>
   <g id="patch_6">
    <path d="M 185.4 468.792 
L 214.92 468.792 
Q 229.32 468.792 229.32 454.392 
L 229.32 416.808 
Q 229.32 402.408 214.92 402.408 
L 185.4 402.408 
Q 171 402.408 171 416.808 
L 171 454.392 
Q 171 468.792 185.4 468.792 
z
" clip-path="url(#p4f373cbc44)" style="fill: #26212c; stroke: #49384d; stroke-width: 1.2; stroke-linejoin: miter"/>
   </g>
   <g id="patch_7">
    <path d="M 186.552 459.036 
C 187.019818 459.036 187.468539 458.850134 187.799336 458.519336 
C 188.130134 458.188539 188.316 457.739818 188.316 457.272 
C 188.316 456.804182 188.130134 456.355461 187.799336 456.024664 
C 187.468539 455.693866 187.019818 455.508 186.552 455.508 
C 186.084182 455.508 185.635461 455.693866 185.304664 456.024664 
C 184.973866 456.355461 184.788 456.804182 184.788 457.272 
C 184.788 457.739818 184.973866 458.188539 185.304664 458.519336 
C 185.635461 458.850134 186.084182 459.036 186.552 459.036 
z
" clip-path="url(#p4f373cbc44)" style="fill: #f078a5; stroke: #f078a5; stroke-linejoin: miter"/>
   </g>
   <g id="patch_8">
    <path d="M 195.624 459.036 
C 196.091818 459.036 196.540539 458.850134 196.871336 458.519336 
C 197.202134 458.188539 197.388 457.739818 197.388 457.272 
C 197.388 456.804182 197.202134 456.355461 196.871336 456.024664 
C 196.540539 455.693866 196.091818 455.508 195.624 455.508 
C 195.156182 455.508 194.707461 455.693866 194.376664 456.024664 
C 194.045866 456.355461 193.86 456.804182 193.86 457.272 
C 193.86 457.739818 194.045866 458.188539 194.376664 458.519336 
C 194.707461 458.850134 195.156182 459.036 195.624 459.036 
z
" clip-path="url(#p4f373cbc44)" style="fill: #f078a5; stroke: #f078a5; stroke-linejoin: miter"/>
   </g>
   <g id="patch_9">
    <path d="M 204.696 459.036 
C 205.163818 459.036 205.612539 458.850134 205.943336 458.519336 
C 206.274134 458.188539 206.46 457.739818 206.46 457.272 
C 206.46 456.804182 206.274134 456.355461 205.943336 456.024664 
C 205.612539 455.693866 205.163818 455.508 204.696 455.508 
C 204.228182 455.508 203.779461 455.693866 203.448664 456.024664 
C 203.117866 456.355461 202.932 456.804182 202.932 457.272 
C 202.932 457.739818 203.117866 458.188539 203.448664 458.519336 
C 203.779461 458.850134 204.228182 459.036 204.696 459.036 
z
" clip-path="url(#p4f373cbc44)" style="fill: #f078a5; stroke: #f078a5; stroke-linejoin: miter"/>
   </g>
   <g id="patch_10">
    <path d="M 213.768 459.036 
C 214.235818 459.036 214.684539 458.850134 215.015336 458.519336 
C 215.346134 458.188539 215.532 457.739818 215.532 457.272 
C 215.532 456.804182 215.346134 456.355461 215.015336 456.024664 
C 214.684539 455.693866 214.235818 455.508 213.768 455.508 
C 213.300182 455.508 212.851461 455.693866 212.520664 456.024664 
C 212.189866 456.355461 212.004 456.804182 212.004 457.272 
C 212.004 457.739818 212.189866 458.188539 212.520664 458.519336 
C 212.851461 458.850134 213.300182 459.036 213.768 459.036 
z
" clip-path="url(#p4f373cbc44)" style="fill: #f078a5; stroke: #f078a5; stroke-linejoin: miter"/>
   </g>
   <g id="patch_11">
    <path d="M 459.36 253.44 
L 678.24 253.44 
Q 692.64 253.44 692.64 239.04 
L 692.64 185.76 
Q 692.64 171.36 678.24 171.36 
L 459.36 171.36 
Q 444.96 171.36 444.96 185.76 
L 444.96 239.04 
Q 444.96 253.44 459.36 253.44 
z
" clip-path="url(#p4f373cbc44)" style="fill: #26212c; stroke: #49384d; stroke-width: 1.2; stroke-linejoin: miter"/>
   </g>
   <g id="patch_12">
    <path d="M 459.36 365.04 
L 678.24 365.04 
Q 692.64 365.04 692.64 350.64 
L 692.64 297.36 
Q 692.64 282.96 678.24 282.96 
L 459.36 282.96 
Q 444.96 282.96 444.96 297.36 
L 444.96 350.64 
Q 444.96 365.04 459.36 365.04 
z
" clip-path="url(#p4f373cbc44)" style="fill: #26212c; stroke: #49384d; stroke-width: 1.2; stroke-linejoin: miter"/>
   </g>
   <g id="patch_13">
    <path d="M 594 336.96 
C 595.050204 336.96 596.057536 336.542749 596.800143 335.800143 
C 597.542749 335.057536 597.96 334.050204 597.96 333 
C 597.96 331.949796 597.542749 330.942464 596.800143 330.199857 
C 596.057536 329.457251 595.050204 329.04 594 329.04 
C 592.949796 329.04 591.942464 329.457251 591.199857 330.199857 
C 590.457251 330.942464 590.04 331.949796 590.04 333 
C 590.04 334.050204 590.457251 335.057536 591.199857 335.800143 
C 591.942464 336.542749 592.949796 336.96 594 336.96 
z
" clip-path="url(#p4f373cbc44)" style="fill: #7cdecf; stroke: #7cdecf; stroke-linejoin: miter"/>
   </g>
   <g id="patch_14">
    <path d="M 594 318.96 
C 595.050204 318.96 596.057536 318.542749 596.800143 317.800143 
C 597.542749 317.057536 597.96 316.050204 597.96 315 
C 597.96 313.949796 597.542749 312.942464 596.800143 312.199857 
C 596.057536 311.457251 595.050204 311.04 594 311.04 
C 592.949796 311.04 591.942464 311.457251 591.199857 312.199857 
C 590.457251 312.942464 590.04 313.949796 590.04 315 
C 590.04 316.050204 590.457251 317.057536 591.199857 317.800143 
C 591.942464 318.542749 592.949796 318.96 594 318.96 
z
" clip-path="url(#p4f373cbc44)" style="fill: #7cdecf; stroke: #7cdecf; stroke-linejoin: miter"/>
   </g>
   <g id="patch_15">
    <path d="M 622.8 345.96 
C 623.850204 345.96 624.857536 345.542749 625.600143 344.800143 
C 626.342749 344.057536 626.76 343.050204 626.76 342 
C 626.76 340.949796 626.342749 339.942464 625.600143 339.199857 
C 624.857536 338.457251 623.850204 338.04 622.8 338.04 
C 621.749796 338.04 620.742464 338.457251 619.999857 339.199857 
C 619.257251 339.942464 618.84 340.949796 618.84 342 
C 618.84 343.050204 619.257251 344.057536 619.999857 344.800143 
C 620.742464 345.542749 621.749796 345.96 622.8 345.96 
z
" clip-path="url(#p4f373cbc44)" style="fill: #7cdecf; stroke: #7cdecf; stroke-linejoin: miter"/>
   </g>
   <g id="patch_16">
    <path d="M 622.8 327.96 
C 623.850204 327.96 624.857536 327.542749 625.600143 326.800143 
C 626.342749 326.057536 626.76 325.050204 626.76 324 
C 626.76 322.949796 626.342749 321.942464 625.600143 321.199857 
C 624.857536 320.457251 623.850204 320.04 622.8 320.04 
C 621.749796 320.04 620.742464 320.457251 619.999857 321.199857 
C 619.257251 321.942464 618.84 322.949796 618.84 324 
C 618.84 325.050204 619.257251 326.057536 619.999857 326.800143 
C 620.742464 327.542749 621.749796 327.96 622.8 327.96 
z
" clip-path="url(#p4f373cbc44)" style="fill: #7cdecf; stroke: #7cdecf; stroke-linejoin: miter"/>
   </g>
   <g id="patch_17">
    <path d="M 622.8 309.96 
C 623.850204 309.96 624.857536 309.542749 625.600143 308.800143 
C 626.342749 308.057536 626.76 307.050204 626.76 306 
C 626.76 304.949796 626.342749 303.942464 625.600143 303.199857 
C 624.857536 302.457251 623.850204 302.04 622.8 302.04 
C 621.749796 302.04 620.742464 302.457251 619.999857 303.199857 
C 619.257251 303.942464 618.84 304.949796 618.84 306 
C 618.84 307.050204 619.257251 308.057536 619.999857 308.800143 
C 620.742464 309.542749 621.749796 309.96 622.8 309.96 
z
" clip-path="url(#p4f373cbc44)" style="fill: #7cdecf; stroke: #7cdecf; stroke-linejoin: miter"/>
   </g>
   <g id="patch_18">
    <path d="M 651.6 336.96 
C 652.650204 336.96 653.657536 336.542749 654.400143 335.800143 
C 655.142749 335.057536 655.56 334.050204 655.56 333 
C 655.56 331.949796 655.142749 330.942464 654.400143 330.199857 
C 653.657536 329.457251 652.650204 329.04 651.6 329.04 
C 650.549796 329.04 649.542464 329.457251 648.799857 330.199857 
C 648.057251 330.942464 647.64 331.949796 647.64 333 
C 647.64 334.050204 648.057251 335.057536 648.799857 335.800143 
C 649.542464 336.542749 650.549796 336.96 651.6 336.96 
z
" clip-path="url(#p4f373cbc44)" style="fill: #7cdecf; stroke: #7cdecf; stroke-linejoin: miter"/>
   </g>
   <g id="patch_19">
    <path d="M 651.6 318.96 
C 652.650204 318.96 653.657536 318.542749 654.400143 317.800143 
C 655.142749 317.057536 655.56 316.050204 655.56 315 
C 655.56 313.949796 655.142749 312.942464 654.400143 312.199857 
C 653.657536 311.457251 652.650204 311.04 651.6 311.04 
C 650.549796 311.04 649.542464 311.457251 648.799857 312.199857 
C 648.057251 312.942464 647.64 313.949796 647.64 315 
C 647.64 316.050204 648.057251 317.057536 648.799857 317.800143 
C 649.542464 318.542749 650.549796 318.96 651.6 318.96 
z
" clip-path="url(#p4f373cbc44)" style="fill: #7cdecf; stroke: #7cdecf; stroke-linejoin: miter"/>
   </g>
   <g id="patch_20">
    <path d="M 459.36 476.64 
L 678.24 476.64 
Q 692.64 476.64 692.64 462.24 
L 692.64 408.96 
Q 692.64 394.56 678.24 394.56 
L 459.36 394.56 
Q 444.96 394.56 444.96 408.96 
L 444.96 462.24 
Q 444.96 476.64 459.36 476.64 
z
" clip-path="url(#p4f373cbc44)" style="fill: #26212c; stroke: #49384d; stroke-width: 1.2; stroke-linejoin: miter"/>
   </g>
   <g id="patch_21">
    <path d="M 594 456.48 
L 604.08 456.48 
L 604.08 446.4 
L 594 446.4 
z
" clip-path="url(#p4f373cbc44)" style="fill: #7cdecf; opacity: 0.65"/>
   </g>
   <g id="patch_22">
    <path d="M 609.84 456.48 
L 619.92 456.48 
L 619.92 446.4 
L 609.84 446.4 
z
" clip-path="url(#p4f373cbc44)" style="fill: #7cdecf; opacity: 0.45"/>
   </g>
   <g id="patch_23">
    <path d="M 625.68 456.48 
L 635.76 456.48 
L 635.76 446.4 
L 625.68 446.4 
z
" clip-path="url(#p4f373cbc44)" style="fill: #7cdecf; opacity: 0.45"/>
   </g>
   <g id="patch_24">
    <path d="M 594 440.64 
L 604.08 440.64 
L 604.08 430.56 
L 594 430.56 
z
" clip-path="url(#p4f373cbc44)" style="fill: #7cdecf; opacity: 0.45"/>
   </g>
   <g id="patch_25">
    <path d="M 609.84 440.64 
L 619.92 440.64 
L 619.92 430.56 
L 609.84 430.56 
z
" clip-path="url(#p4f373cbc44)" style="fill: #7cdecf; opacity: 0.65"/>
   </g>
   <g id="patch_26">
    <path d="M 625.68 440.64 
L 635.76 440.64 
L 635.76 430.56 
L 625.68 430.56 
z
" clip-path="url(#p4f373cbc44)" style="fill: #7cdecf; opacity: 0.45"/>
   </g>
   <g id="patch_27">
    <path d="M 594 424.8 
L 604.08 424.8 
L 604.08 414.72 
L 594 414.72 
z
" clip-path="url(#p4f373cbc44)" style="fill: #7cdecf; opacity: 0.45"/>
   </g>
   <g id="patch_28">
    <path d="M 609.84 424.8 
L 619.92 424.8 
L 619.92 414.72 
L 609.84 414.72 
z
" clip-path="url(#p4f373cbc44)" style="fill: #7cdecf; opacity: 0.45"/>
   </g>
   <g id="patch_29">
    <path d="M 625.68 424.8 
L 635.76 424.8 
L 635.76 414.72 
L 625.68 414.72 
z
" clip-path="url(#p4f373cbc44)" style="fill: #7cdecf; opacity: 0.65"/>
   </g>
   <g id="line2d_1">
    <path d="M 46.8 608.4 
L 1105.2 608.4 
" clip-path="url(#p4f373cbc44)" style="fill: none; stroke: #49384d; stroke-linecap: round"/>
   </g>
   <g id="line2d_2">
    <path d="M 180 420.48 
L 200.16 408.888 
L 220.32 420.48 
" clip-path="url(#p4f373cbc44)" style="fill: none; stroke: #7cdecf; stroke-width: 2; stroke-linecap: round"/>
   </g>
   <g id="line2d_3">
    <path d="M 186.048 443.16 
L 186.048 424.008 
" clip-path="url(#p4f373cbc44)" style="fill: none; stroke: #fff5f8; stroke-width: 2; stroke-linecap: round"/>
   </g>
   <g id="line2d_4">
    <path d="M 200.16 443.16 
L 200.16 424.008 
" clip-path="url(#p4f373cbc44)" style="fill: none; stroke: #fff5f8; stroke-width: 2; stroke-linecap: round"/>
   </g>
   <g id="line2d_5">
    <path d="M 214.272 443.16 
L 214.272 424.008 
" clip-path="url(#p4f373cbc44)" style="fill: none; stroke: #fff5f8; stroke-width: 2; stroke-linecap: round"/>
   </g>
   <g id="line2d_6">
    <path d="M 180 447.696 
L 220.32 447.696 
" clip-path="url(#p4f373cbc44)" style="fill: none; stroke: #fff5f8; stroke-width: 2; stroke-linecap: round"/>
   </g>
   <g id="line2d_7">
    <path d="M 594 228.24 
L 640.8 228.24 
" clip-path="url(#p4f373cbc44)" style="fill: none; stroke: #7cdecf; stroke-width: 2; stroke-linecap: round"/>
   </g>
   <g id="line2d_8">
    <path d="M 602.64 212.4 
L 649.44 212.4 
" clip-path="url(#p4f373cbc44)" style="fill: none; stroke: #7cdecf; stroke-width: 2; stroke-linecap: round"/>
   </g>
   <g id="line2d_9">
    <path d="M 611.28 196.56 
L 658.08 196.56 
" clip-path="url(#p4f373cbc44)" style="fill: none; stroke: #7cdecf; stroke-width: 2; stroke-linecap: round"/>
   </g>
   <g id="line2d_10">
    <path d="M 806.4 176.4 
L 806.4 244.8 
L 997.2 244.8 
" clip-path="url(#p4f373cbc44)" style="fill: none; stroke: #b4a5b8; stroke-width: 1.3; stroke-linecap: round"/>
   </g>
   <g id="line2d_11">
    <path d="M 825.48 235.224 
L 827.021818 234.774909 
L 828.563636 234.325818 
L 830.105455 233.876727 
L 831.647273 233.427636 
L 833.189091 232.978545 
L 834.730909 232.529455 
L 836.272727 232.080364 
L 837.814545 231.631273 
L 839.356364 231.182182 
L 840.898182 230.733091 
L 842.44 230.284 
L 843.981818 229.834909 
L 845.523636 229.385818 
L 847.065455 228.936727 
L 848.607273 228.487636 
L 850.149091 228.038545 
L 851.690909 227.589455 
L 853.232727 227.140364 
L 854.774545 226.691273 
L 856.316364 226.242182 
L 857.858182 225.793091 
L 859.4 225.344 
L 860.941818 224.894909 
L 862.483636 224.445818 
L 864.025455 223.996727 
L 865.567273 223.547636 
L 867.109091 223.098545 
L 868.650909 222.649455 
L 870.192727 222.200364 
L 871.734545 221.751273 
L 873.276364 221.302182 
L 874.818182 220.853091 
L 876.36 220.404 
L 877.901818 219.954909 
L 879.443636 219.505818 
L 880.985455 219.056727 
L 882.527273 218.607636 
L 884.069091 218.158545 
L 885.610909 217.709455 
L 887.152727 217.260364 
L 888.694545 216.811273 
L 890.236364 216.362182 
L 891.778182 215.913091 
L 893.32 215.464 
L 894.861818 215.014909 
L 896.403636 214.565818 
L 897.945455 214.116727 
L 899.487273 213.667636 
L 901.029091 213.218545 
L 902.570909 212.769455 
L 904.112727 212.320364 
L 905.654545 211.871273 
L 907.196364 211.422182 
L 908.738182 210.973091 
L 910.28 210.524 
L 911.821818 210.074909 
L 913.363636 209.625818 
L 914.905455 209.176727 
L 916.447273 208.727636 
L 917.989091 208.278545 
L 919.530909 207.829455 
L 921.072727 207.380364 
L 922.614545 206.931273 
L 924.156364 206.482182 
L 925.698182 206.033091 
L 927.24 205.584 
L 928.781818 205.134909 
L 930.323636 204.685818 
L 931.865455 204.236727 
L 933.407273 203.787636 
L 934.949091 203.338545 
L 936.490909 202.889455 
L 938.032727 202.440364 
L 939.574545 201.991273 
L 941.116364 201.542182 
L 942.658182 201.093091 
L 944.2 200.644 
L 945.741818 200.194909 
L 947.283636 199.745818 
L 948.825455 199.296727 
L 950.367273 198.847636 
L 951.909091 198.398545 
L 953.450909 197.949455 
L 954.992727 197.500364 
L 956.534545 197.051273 
L 958.076364 196.602182 
L 959.618182 196.153091 
L 961.16 195.704 
L 962.701818 195.254909 
L 964.243636 194.805818 
L 965.785455 194.356727 
L 967.327273 193.907636 
L 968.869091 193.458545 
L 970.410909 193.009455 
L 971.952727 192.560364 
L 973.494545 192.111273 
L 975.036364 191.662182 
L 976.578182 191.213091 
L 978.12 190.764 
" clip-path="url(#p4f373cbc44)" style="fill: none; stroke: #f078a5; stroke-width: 4; stroke-linecap: round"/>
   </g>
   <g id="line2d_12">
    <path d="M 594 333 
L 622.8 342 
" clip-path="url(#p4f373cbc44)" style="fill: none; stroke: #7cdecf; stroke-width: 0.7; stroke-linecap: round"/>
   </g>
   <g id="line2d_13">
    <path d="M 594 333 
L 622.8 324 
" clip-path="url(#p4f373cbc44)" style="fill: none; stroke: #7cdecf; stroke-width: 0.7; stroke-linecap: round"/>
   </g>
   <g id="line2d_14">
    <path d="M 594 333 
L 622.8 306 
" clip-path="url(#p4f373cbc44)" style="fill: none; stroke: #7cdecf; stroke-width: 0.7; stroke-linecap: round"/>
   </g>
   <g id="line2d_15">
    <path d="M 594 315 
L 622.8 342 
" clip-path="url(#p4f373cbc44)" style="fill: none; stroke: #7cdecf; stroke-width: 0.7; stroke-linecap: round"/>
   </g>
   <g id="line2d_16">
    <path d="M 594 315 
L 622.8 324 
" clip-path="url(#p4f373cbc44)" style="fill: none; stroke: #7cdecf; stroke-width: 0.7; stroke-linecap: round"/>
   </g>
   <g id="line2d_17">
    <path d="M 594 315 
L 622.8 306 
" clip-path="url(#p4f373cbc44)" style="fill: none; stroke: #7cdecf; stroke-width: 0.7; stroke-linecap: round"/>
   </g>
   <g id="line2d_18">
    <path d="M 622.8 342 
L 651.6 333 
" clip-path="url(#p4f373cbc44)" style="fill: none; stroke: #7cdecf; stroke-width: 0.7; stroke-linecap: round"/>
   </g>
   <g id="line2d_19">
    <path d="M 622.8 342 
L 651.6 315 
" clip-path="url(#p4f373cbc44)" style="fill: none; stroke: #7cdecf; stroke-width: 0.7; stroke-linecap: round"/>
   </g>
   <g id="line2d_20">
    <path d="M 622.8 324 
L 651.6 333 
" clip-path="url(#p4f373cbc44)" style="fill: none; stroke: #7cdecf; stroke-width: 0.7; stroke-linecap: round"/>
   </g>
   <g id="line2d_21">
    <path d="M 622.8 324 
L 651.6 315 
" clip-path="url(#p4f373cbc44)" style="fill: none; stroke: #7cdecf; stroke-width: 0.7; stroke-linecap: round"/>
   </g>
   <g id="line2d_22">
    <path d="M 622.8 306 
L 651.6 333 
" clip-path="url(#p4f373cbc44)" style="fill: none; stroke: #7cdecf; stroke-width: 0.7; stroke-linecap: round"/>
   </g>
   <g id="line2d_23">
    <path d="M 622.8 306 
L 651.6 315 
" clip-path="url(#p4f373cbc44)" style="fill: none; stroke: #7cdecf; stroke-width: 0.7; stroke-linecap: round"/>
   </g>
   <g id="line2d_24">
    <path d="M 806.4 288 
L 806.4 356.4 
L 997.2 356.4 
" clip-path="url(#p4f373cbc44)" style="fill: none; stroke: #b4a5b8; stroke-width: 1.3; stroke-linecap: round"/>
   </g>
   <g id="line2d_25">
    <path d="M 825.48 343.746 
L 827.021818 343.989702 
L 828.563636 344.223355 
L 830.105455 344.446959 
L 831.647273 344.660512 
L 833.189091 344.864017 
L 834.730909 345.057471 
L 836.272727 345.240876 
L 837.814545 345.414231 
L 839.356364 345.577537 
L 840.898182 345.730793 
L 842.44 345.874 
L 843.981818 346.007157 
L 845.523636 346.130264 
L 847.065455 346.243322 
L 848.607273 346.346331 
L 850.149091 346.439289 
L 851.690909 346.522198 
L 853.232727 346.595058 
L 854.774545 346.657868 
L 856.316364 346.710628 
L 857.858182 346.753339 
L 859.4 346.786 
L 860.941818 346.808612 
L 862.483636 346.821174 
L 864.025455 346.823686 
L 865.567273 346.816149 
L 867.109091 346.798562 
L 868.650909 346.770926 
L 870.192727 346.73324 
L 871.734545 346.685504 
L 873.276364 346.627719 
L 874.818182 346.559884 
L 876.36 346.482 
L 877.901818 346.394066 
L 879.443636 346.296083 
L 880.985455 346.18805 
L 882.527273 346.069967 
L 884.069091 345.941835 
L 885.610909 345.803653 
L 887.152727 345.655421 
L 888.694545 345.49714 
L 890.236364 345.32881 
L 891.778182 345.15043 
L 893.32 344.962 
L 894.861818 344.763521 
L 896.403636 344.554992 
L 897.945455 344.336413 
L 899.487273 344.107785 
L 901.029091 343.869107 
L 902.570909 343.62038 
L 904.112727 343.361603 
L 905.654545 343.092777 
L 907.196364 342.813901 
L 908.738182 342.524975 
L 910.28 342.226 
L 911.821818 341.916975 
L 913.363636 341.597901 
L 914.905455 341.268777 
L 916.447273 340.929603 
L 917.989091 340.58038 
L 919.530909 340.221107 
L 921.072727 339.851785 
L 922.614545 339.472413 
L 924.156364 339.082992 
L 925.698182 338.683521 
L 927.24 338.274 
L 928.781818 337.85443 
L 930.323636 337.42481 
L 931.865455 336.98514 
L 933.407273 336.535421 
L 934.949091 336.075653 
L 936.490909 335.605835 
L 938.032727 335.125967 
L 939.574545 334.63605 
L 941.116364 334.136083 
L 942.658182 333.626066 
L 944.2 333.106 
L 945.741818 332.575884 
L 947.283636 332.035719 
L 948.825455 331.485504 
L 950.367273 330.92524 
L 951.909091 330.354926 
L 953.450909 329.774562 
L 954.992727 329.184149 
L 956.534545 328.583686 
L 958.076364 327.973174 
L 959.618182 327.352612 
L 961.16 326.722 
L 962.701818 326.081339 
L 964.243636 325.430628 
L 965.785455 324.769868 
L 967.327273 324.099058 
L 968.869091 323.418198 
L 970.410909 322.727289 
L 971.952727 322.026331 
L 973.494545 321.315322 
L 975.036364 320.594264 
L 976.578182 319.863157 
L 978.12 319.122 
" clip-path="url(#p4f373cbc44)" style="fill: none; stroke: #f078a5; stroke-width: 4; stroke-linecap: round"/>
   </g>
   <g id="line2d_26">
    <path d="M 806.4 399.6 
L 806.4 468 
L 997.2 468 
" clip-path="url(#p4f373cbc44)" style="fill: none; stroke: #b4a5b8; stroke-width: 1.3; stroke-linecap: round"/>
   </g>
   <g id="line2d_27">
    <path d="M 825.48 455.346 
L 827.021818 455.589702 
L 828.563636 455.823355 
L 830.105455 456.046959 
L 831.647273 456.260512 
L 833.189091 456.464017 
L 834.730909 456.657471 
L 836.272727 456.840876 
L 837.814545 457.014231 
L 839.356364 457.177537 
L 840.898182 457.330793 
L 842.44 457.474 
L 843.981818 457.607157 
L 845.523636 457.730264 
L 847.065455 457.843322 
L 848.607273 457.946331 
L 850.149091 458.039289 
L 851.690909 458.122198 
L 853.232727 458.195058 
L 854.774545 458.257868 
L 856.316364 458.310628 
L 857.858182 458.353339 
L 859.4 458.386 
L 860.941818 458.408612 
L 862.483636 458.421174 
L 864.025455 458.423686 
L 865.567273 458.416149 
L 867.109091 458.398562 
L 868.650909 458.370926 
L 870.192727 458.33324 
L 871.734545 458.285504 
L 873.276364 458.227719 
L 874.818182 458.159884 
L 876.36 458.082 
L 877.901818 457.994066 
L 879.443636 457.896083 
L 880.985455 457.78805 
L 882.527273 457.669967 
L 884.069091 457.541835 
L 885.610909 457.403653 
L 887.152727 457.255421 
L 888.694545 457.09714 
L 890.236364 456.92881 
L 891.778182 456.75043 
L 893.32 456.562 
L 894.861818 456.363521 
L 896.403636 456.154992 
L 897.945455 455.936413 
L 899.487273 455.707785 
L 901.029091 455.469107 
L 902.570909 455.22038 
L 904.112727 454.961603 
L 905.654545 454.692777 
L 907.196364 454.413901 
L 908.738182 454.124975 
L 910.28 453.826 
L 911.821818 453.516975 
L 913.363636 453.197901 
L 914.905455 452.868777 
L 916.447273 452.529603 
L 917.989091 452.18038 
L 919.530909 451.821107 
L 921.072727 451.451785 
L 922.614545 451.072413 
L 924.156364 450.682992 
L 925.698182 450.283521 
L 927.24 449.874 
L 928.781818 449.45443 
L 930.323636 449.02481 
L 931.865455 448.58514 
L 933.407273 448.135421 
L 934.949091 447.675653 
L 936.490909 447.205835 
L 938.032727 446.725967 
L 939.574545 446.23605 
L 941.116364 445.736083 
L 942.658182 445.226066 
L 944.2 444.706 
L 945.741818 444.175884 
L 947.283636 443.635719 
L 948.825455 443.085504 
L 950.367273 442.52524 
L 951.909091 441.954926 
L 953.450909 441.374562 
L 954.992727 440.784149 
L 956.534545 440.183686 
L 958.076364 439.573174 
L 959.618182 438.952612 
L 961.16 438.322 
L 962.701818 437.681339 
L 964.243636 437.030628 
L 965.785455 436.369868 
L 967.327273 435.699058 
L 968.869091 435.018198 
L 970.410909 434.327289 
L 971.952727 433.626331 
L 973.494545 432.915322 
L 975.036364 432.194264 
L 976.578182 431.463157 
L 978.12 430.722 
" clip-path="url(#p4f373cbc44)" style="fill: none; stroke: #7cdecf; stroke-width: 4; stroke-linecap: round"/>
   </g>
   <g id="text_1">
    <text style="font-weight: 700; font-size: 30px; font-family: 'DejaVu Sans'; text-anchor: start; fill: #fff5f8" x="46.8" y="54.594141" transform="rotate(-0 46.8 54.594141)">Local computation → shared inference</text>
   </g>
   <g id="text_2">
    <text style="font-weight: 700; font-size: 15px; font-family: 'DejaVu Sans'; text-anchor: end; fill: #f078a5" x="1105.2" y="50.696484" transform="rotate(-0 1105.2 50.696484)">FLAMINGO</text>
   </g>
   <g id="text_3">
    <text style="font-size: 9px; font-family: 'DejaVu Sans'; text-anchor: start; fill: #b4a5b8" x="46.8" y="630.177891" transform="rotate(-0 46.8 630.177891)">FEDERATED MENDELIAN RANDOMIZATION</text>
   </g>
   <g id="text_4">
    <text style="font-size: 11px; font-family: 'DejaVu Sans'; text-anchor: end; fill: #b4a5b8" x="1105.2" y="630.697422" transform="rotate(-0 1105.2 630.697422)">02 / 04</text>
   </g>
   <g id="text_5">
    <text style="font-size: 21px; font-family: 'DejaVu Sans'; text-anchor: middle; fill: #fff5f8" x="200.16" y="171.055898" transform="rotate(-0 200.16 171.055898)">Each site</text>
   </g>
   <g id="text_6">
    <text style="font-size: 24px; font-family: 'DejaVu Sans'; text-anchor: middle; fill: #fff5f8" x="99.36" y="269.034375" transform="rotate(-0 99.36 269.034375)">G</text>
   </g>
   <g id="text_7">
    <text style="font-size: 24px; font-family: 'DejaVu Sans'; text-anchor: middle; fill: #fff5f8" x="200.16" y="269.034375" transform="rotate(-0 200.16 269.034375)">X</text>
   </g>
   <g id="text_8">
    <text style="font-size: 24px; font-family: 'DejaVu Sans'; text-anchor: middle; fill: #fff5f8" x="296.64" y="269.034375" transform="rotate(-0 296.64 269.034375)">Y</text>
   </g>
   <g id="patch_30">
    <path d="M 131.596436 262.8 
Q 149.399832 262.8 164.967161 262.8 
" style="fill: none; stroke: #f078a5; stroke-width: 2; stroke-linecap: round"/>
    <path d="M 156.967161 258.8 
L 164.967161 262.8 
L 156.967161 266.8 
z
" style="fill: #f078a5; stroke: #f078a5; stroke-width: 2; stroke-linecap: round"/>
   </g>
   <g id="patch_31">
    <path d="M 232.399512 262.8 
Q 248.401573 262.8 262.167565 262.8 
" style="fill: none; stroke: #f078a5; stroke-width: 2; stroke-linecap: round"/>
    <path d="M 254.167565 258.8 
L 262.167565 262.8 
L 254.167565 266.8 
z
" style="fill: #f078a5; stroke: #f078a5; stroke-width: 2; stroke-linecap: round"/>
   </g>
   <g id="text_9">
    <text style="font-size: 22px; font-family: 'DejaVu Sans'; text-anchor: middle; fill: #b4a5b8" x="200.16" y="354.914844" transform="rotate(-0 200.16 354.914844)">U</text>
   </g>
   <g id="patch_32">
    <path d="M 200.16 321.999609 
Q 200.16 309.599229 200.16 298.764095 
" style="fill: none; stroke: #b4a5b8; stroke-width: 1.4; stroke-linecap: round"/>
    <path d="M 196.16 306.764095 
L 200.16 298.764095 
L 204.16 306.764095 
z
" style="fill: #b4a5b8; stroke: #b4a5b8; stroke-width: 1.4; stroke-linecap: round"/>
   </g>
   <g id="patch_33">
    <path d="M 219.747524 337.186011 
Q 248.758759 315.000949 276.526628 293.766696 
" style="fill: none; stroke: #b4a5b8; stroke-width: 1.4; stroke-linecap: round"/>
    <path d="M 267.741965 295.448866 
L 276.526628 293.766696 
L 272.601565 301.803729 
z
" style="fill: #b4a5b8; stroke: #b4a5b8; stroke-width: 1.4; stroke-linecap: round"/>
   </g>
   <g id="patch_34">
    <path d="M 360.558413 212.4 
Q 397.078438 212.4 431.362396 212.4 
" style="fill: none; stroke: #f078a5; stroke-width: 2; stroke-linecap: round"/>
    <path d="M 423.362396 208.4 
L 431.362396 212.4 
L 423.362396 216.4 
z
" style="fill: #f078a5; stroke: #f078a5; stroke-width: 2; stroke-linecap: round"/>
   </g>
   <g id="text_10">
    <text style="font-weight: 700; font-size: 20px; font-family: 'DejaVu Sans'; text-anchor: start; fill: #fff5f8" x="471.6" y="217.595313" transform="rotate(-0 471.6 217.595313)">IVW</text>
   </g>
   <g id="patch_35">
    <path d="M 706.163643 212.4 
Q 740.881172 212.4 773.362633 212.4 
" style="fill: none; stroke: #f078a5; stroke-width: 2; stroke-linecap: round"/>
    <path d="M 765.362633 208.4 
L 773.362633 212.4 
L 765.362633 216.4 
z
" style="fill: #f078a5; stroke: #f078a5; stroke-width: 2; stroke-linecap: round"/>
   </g>
   <g id="patch_36">
    <path d="M 360.558413 324 
Q 397.078438 324 431.362396 324 
" style="fill: none; stroke: #f078a5; stroke-width: 2; stroke-linecap: round"/>
    <path d="M 423.362396 320 
L 431.362396 324 
L 423.362396 328 
z
" style="fill: #f078a5; stroke: #f078a5; stroke-width: 2; stroke-linecap: round"/>
   </g>
   <g id="text_11">
    <text style="font-weight: 700; font-size: 20px; font-family: 'DejaVu Sans'; text-anchor: start; fill: #fff5f8" x="471.6" y="329.196094" transform="rotate(-0 471.6 329.196094)">FedAvg</text>
   </g>
   <g id="patch_37">
    <path d="M 706.163643 324 
Q 740.881172 324 773.362633 324 
" style="fill: none; stroke: #f078a5; stroke-width: 2; stroke-linecap: round"/>
    <path d="M 765.362633 320 
L 773.362633 324 
L 765.362633 328 
z
" style="fill: #f078a5; stroke: #f078a5; stroke-width: 2; stroke-linecap: round"/>
   </g>
   <g id="patch_38">
    <path d="M 360.558413 435.6 
Q 397.078438 435.6 431.362396 435.6 
" style="fill: none; stroke: #f078a5; stroke-width: 2; stroke-linecap: round"/>
    <path d="M 423.362396 431.6 
L 431.362396 435.6 
L 423.362396 439.6 
z
" style="fill: #f078a5; stroke: #f078a5; stroke-width: 2; stroke-linecap: round"/>
   </g>
   <g id="text_12">
    <text style="font-weight: 700; font-size: 20px; font-family: 'DejaVu Sans'; text-anchor: start; fill: #fff5f8" x="471.6" y="440.796094" transform="rotate(-0 471.6 440.796094)">FedMR</text>
   </g>
   <g id="patch_39">
    <path d="M 706.163643 435.6 
Q 740.881172 435.6 773.362633 435.6 
" style="fill: none; stroke: #f078a5; stroke-width: 2; stroke-linecap: round"/>
    <path d="M 765.362633 431.6 
L 773.362633 435.6 
L 765.362633 439.6 
z
" style="fill: #f078a5; stroke: #f078a5; stroke-width: 2; stroke-linecap: round"/>
   </g>
   <g id="text_13">
    <text style="font-size: 18px; font-family: 'DejaVu Sans'; text-anchor: middle; fill: #b4a5b8" x="568.8" y="544.676484" transform="rotate(-0 568.8 544.676484)">Summaries / updates</text>
   </g>
   <g id="text_14">
    <text style="font-size: 18px; font-family: 'DejaVu Sans'; text-anchor: middle; fill: #b4a5b8" x="903.6" y="544.676484" transform="rotate(-0 903.6 544.676484)">Estimate / curve</text>
   </g>
  </g>
 </g>
 <defs>
  <clipPath id="p4f373cbc44">
   <rect x="0" y="0" width="1152" height="648"/>
  </clipPath>
 </defs>
</svg>
